# xmcd
#
# Track frame offsets:
#	300
#	14162
#	28776
#	41708
#	54726
#	68003
#	80787
#	94459
#	107910
#	120837
#	134175
#	146774
#	158552
#	168914
#	180624
#	193561
#	205014
#	217340
#
# Disc length: 3061 seconds
#
# Revision: 0
# Processed by: cddbd v1.5.2PL0 Copyright (c) Steve Scherf et al.
# Submitted via: EasyCDDAExtractor 16.1.0.1
#
DISCID=150bf112
DTITLE=Robert Johnson - A Proper Introduction to Robert Johnson: Cross Road Bl
DTITLE=ues
DYEAR=1997
DGENRE=Blues
TTITLE0=Kindhearted Woman Blues
TTITLE1=I Believe I'll Dust My Broom
TTITLE2=Sweet Home Chicago
TTITLE3=Rambling on My Mind
TTITLE4=When You Got a Friend
TTITLE5=Come on in My Kitchen
TTITLE6=Terraplane Blues
TTITLE7=Phonograph Blues
TTITLE8=30-20 Blues
TTITLE9=They're Red Hot
TTITLE10=Dead Shrimp Blues
TTITLE11=Cross Road Blues
TTITLE12=Walking Blues
TTITLE13=Last Fair Deal Gone Down
TTITLE14=Preaching Blues (Up Jumped the Devil)
TTITLE15=If I Had Posession Over Judgement Day
TTITLE16=Stones in My Passway
TTITLE17=I'm a Steady Rollin' Man
EXTD=
EXTT0=
EXTT1=
EXTT2=
EXTT3=
EXTT4=
EXTT5=
EXTT6=
EXTT7=
EXTT8=
EXTT9=
EXTT10=
EXTT11=
EXTT12=
EXTT13=
EXTT14=
EXTT15=
EXTT16=
EXTT17=
PLAYORDER=
